<svg width="39" height="38" viewBox="0 0 39 38" fill="none" xmlns="http://www.w3.org/2000/svg">
<g opacity="0.12" clip-path="url(#clip0_31154_5400)">
<path d="M22.1458 14.9162C19.811 15.2343 17.8246 16.6999 16.8324 18.8371C15.8403 20.9742 16.0027 23.4374 17.2667 25.426L20.3122 30.2182C20.8174 31.0133 21.5498 31.6119 22.4294 31.9492C23.3092 32.2865 24.2538 32.3307 25.1616 32.0773C26.069 31.8232 26.8538 31.2952 27.4311 30.5503C28.0084 29.8054 28.3236 28.9134 28.343 27.9711L28.344 27.9079C28.4099 25.5447 29.4625 23.298 31.2382 21.7348C31.6962 21.3315 32.058 20.847 32.3095 20.3053C32.4462 20.0107 32.5503 19.6989 32.6197 19.3744C32.8163 18.4527 32.7132 17.5125 32.3216 16.6551C31.9299 15.7982 31.2865 15.1049 30.4608 14.6502C29.6352 14.1956 28.7055 14.0227 27.7718 14.1497L22.1458 14.9162Z" fill="#54ADFF"/>
<path d="M16.3183 27.4542C16.3845 26.4799 16.0098 25.5425 15.2631 24.8145C14.5526 24.1217 13.5826 23.7011 12.5315 23.6303C11.4809 23.56 10.4634 23.8468 9.66624 24.4381C8.82901 25.0592 8.33177 25.9377 8.26673 26.9109C8.13426 28.8681 9.83269 30.5829 12.0539 30.7339C13.8228 30.8519 15.3963 29.9424 16.0296 28.5784C16.1912 28.2301 16.2916 27.8521 16.3183 27.4542Z" fill="#54ADFF"/>
<path d="M15.4258 20.4842C16.3896 18.4081 15.2494 15.8257 12.8841 14.7276C10.5181 13.6292 7.80926 14.4247 6.84544 16.5008C5.88171 18.5767 7.02239 21.1592 9.38831 22.2575C11.7536 23.3556 14.462 22.5601 15.4258 20.4842Z" fill="#54ADFF"/>
<path d="M19.4981 14.4703L19.4982 14.4701C19.7524 14.1999 19.9544 13.8977 20.105 13.5732C20.8079 12.0592 20.3909 10.072 18.9587 8.72278C18.1343 7.94595 17.0936 7.48872 16.0285 7.43542C14.9134 7.37941 13.9053 7.76693 13.1896 8.52671C12.4738 9.28669 12.1473 10.3163 12.2697 11.4259C12.3866 12.4859 12.9052 13.4974 13.7297 14.2738C15.469 15.912 18.0567 16.0002 19.4981 14.4703Z" fill="#54ADFF"/>
<path d="M22.6784 6.30984L22.6776 6.31015C20.9553 7.25088 20.4196 9.60491 21.4839 11.5583C22.5495 13.5109 24.8176 14.3359 26.5397 13.3977C27.168 13.0556 27.6386 12.5253 27.9313 11.8948C28.4414 10.7959 28.4113 9.3923 27.7347 8.14922C26.6691 6.19683 24.401 5.37161 22.6784 6.30984Z" fill="#54ADFF"/>
</g>
<defs>
<clipPath id="clip0_31154_5400">
<rect width="28.2604" height="28.2604" fill="white" transform="translate(0.603516 25.75) rotate(-65.0971)"/>
</clipPath>
</defs>
</svg>
