<svg width="34" height="34" viewBox="0 0 34 34" fill="none" xmlns="http://www.w3.org/2000/svg">
<g opacity="0.12" clip-path="url(#clip0_31154_5376)">
<path d="M21.9941 18.7005C20.9271 16.4717 18.8263 14.9591 16.3743 14.6546C13.9223 14.3501 11.5154 15.3029 9.93585 17.2031L6.12927 21.7818C5.49771 22.5414 5.13517 23.4647 5.08081 24.451C5.02642 25.4377 5.28554 26.3949 5.82993 27.2198C6.37485 28.0441 7.15392 28.658 8.08285 28.9953C9.01178 29.3326 10.0035 29.3609 10.9504 29.0777L11.0139 29.0585C13.3942 28.3657 15.975 28.6953 18.1056 29.9663C18.6552 30.294 19.2551 30.4997 19.8766 30.5769C20.2145 30.6189 20.5592 30.6227 20.9055 30.5878C21.8887 30.4882 22.7942 30.0835 23.5245 29.4173C24.2543 28.7512 24.7399 27.8863 24.9287 26.9162C25.1175 25.946 24.9918 24.9623 24.5652 24.0709L21.9941 18.7005Z" fill="#FFC107"/>
<path d="M7.60558 16.9073C8.59949 16.6607 9.41512 15.9857 9.90215 15.0066C10.3658 14.0749 10.4743 12.9715 10.2076 11.8995C9.94052 10.8281 9.32751 9.90439 8.4814 9.29831C7.59258 8.66186 6.55589 8.44746 5.56347 8.69492C3.56709 9.1909 2.4003 11.4369 2.9626 13.7029C3.41255 15.5067 4.82559 16.7856 6.39062 16.9799C6.79023 17.0296 7.19977 17.0084 7.60558 16.9073Z" fill="#FFC107"/>
<path d="M14.2767 13.7774C16.6587 14.0732 18.8708 12.106 19.2078 9.39213C19.5449 6.67762 17.8812 4.22865 15.4992 3.93286C13.1174 3.6371 10.9055 5.6048 10.5684 8.31931C10.2314 11.0332 11.8949 13.4816 14.2767 13.7774Z" fill="#FFC107"/>
<path d="M21.587 15.9134L21.5872 15.9134C21.9385 16.0805 22.3051 16.185 22.6773 16.2313C24.4144 16.447 26.2644 15.3928 27.1516 13.5299C27.6626 12.4576 27.785 11.2719 27.4963 10.1914C27.1943 9.06028 26.4838 8.17828 25.4956 7.70765C24.5071 7.237 23.3744 7.24148 22.3059 7.71986C21.2852 8.17683 20.442 9.01923 19.9315 10.0916C18.8543 12.3538 19.5969 14.9654 21.587 15.9134Z" fill="#FFC107"/>
<path d="M30.7559 16.4691L30.7553 16.4683C29.2633 15.0509 26.7413 15.2718 25.1328 16.9613C23.5255 18.6518 23.43 21.181 24.9194 22.599C25.4625 23.1164 26.143 23.416 26.8664 23.5059C28.1272 23.6624 29.5188 23.1818 30.5426 22.1073C32.1496 20.4167 32.2454 17.8876 30.7559 16.4691Z" fill="#FFC107"/>
</g>
<defs>
<clipPath id="clip0_31154_5376">
<rect width="29.6354" height="29.6354" fill="white" transform="translate(4.26172 0.671875) rotate(7.07858)"/>
</clipPath>
</defs>
</svg>
