<svg width="113" height="113" viewBox="0 0 113 113" fill="none" xmlns="http://www.w3.org/2000/svg">
<g opacity="0.12" clip-path="url(#clip0_31154_5370)">
<path d="M67.9215 49.6002C61.599 47.6919 54.8284 49.1148 49.8103 53.4074C44.7923 57.7 42.3378 64.1685 43.2441 70.7099L45.427 86.4731C45.7889 89.0883 46.9588 91.4672 48.8083 93.3513C50.6582 95.236 53.0148 96.4486 55.6241 96.8598C58.2332 97.2688 60.8487 96.8366 63.1879 95.6101C65.5271 94.3836 67.3694 92.4768 68.5161 90.0971L68.5925 89.9372C71.5125 83.9897 76.8121 79.488 83.1593 77.571C84.7964 77.0762 86.2832 76.2625 87.5551 75.1744C88.2467 74.5828 88.8752 73.9092 89.4301 73.1626C91.0045 71.042 91.8366 68.5251 91.8367 65.8833C91.8363 63.2428 91.0034 60.7259 89.4282 58.6056C87.8529 56.4852 85.6843 54.9615 83.156 54.1979L67.9215 49.6002Z" fill="#54ADFF"/>
<path d="M38.464 74.7756C39.7675 72.3691 39.9042 69.5429 38.8483 66.8176C37.844 64.2239 35.861 62.0221 33.264 60.6176C30.6676 59.2148 27.7397 58.7612 25.019 59.34C22.1614 59.9483 19.8706 61.6089 18.5715 64.014C15.9545 68.849 18.2872 75.1985 23.7738 78.17C28.1457 80.531 33.216 80.0449 36.4188 77.3051C37.2366 76.6055 37.9326 75.7589 38.464 74.7756Z" fill="#54ADFF"/>
<path d="M44.3027 55.9669C49.1774 51.7969 49.2783 43.8858 44.5273 38.3319C39.7752 32.7766 31.9432 31.6499 27.0684 35.82C22.1941 39.9896 22.0945 47.9012 26.8466 53.4565C31.5976 59.0104 39.4284 60.1366 44.3027 55.9669Z" fill="#54ADFF"/>
<path d="M61.6893 45.3822L61.6898 45.3818C62.6525 44.9893 63.5193 44.4538 64.2811 43.8021C67.8361 40.761 69.0873 35.2098 67.0076 30.1023C65.8108 27.162 63.6903 24.7844 61.037 23.408C58.2598 21.9668 55.2386 21.7806 52.5293 22.884C49.8195 23.9878 47.788 26.2321 46.8078 29.2034C45.8713 32.0418 46.0155 35.2241 47.2132 38.1637C49.7391 44.3654 56.2331 47.6036 61.6893 45.3822Z" fill="#54ADFF"/>
<path d="M79.3013 28.2804L79.2987 28.2802C73.8127 28.6726 69.7058 34.0497 70.1439 40.2688C70.5864 46.4873 75.4077 51.2319 80.8903 50.8457C82.8903 50.7054 84.7075 49.9015 86.188 48.6351C88.7682 46.4279 90.326 42.8146 90.0489 38.8578C89.6059 32.6397 84.7851 27.8946 79.3013 28.2804Z" fill="#54ADFF"/>
</g>
<defs>
<clipPath id="clip0_31154_5370">
<rect width="79.2039" height="79.2039" fill="white" transform="translate(0.386719 52.1318) rotate(-40.5446)"/>
</clipPath>
</defs>
</svg>
