<svg width="40" height="40" viewBox="0 0 40 40" fill="none" xmlns="http://www.w3.org/2000/svg">
<g opacity="0.12" clip-path="url(#clip0_31154_5388)">
<path d="M17.7428 15.9101C16.8825 18.1038 17.194 20.5527 18.5764 22.4607C19.9589 24.3687 22.1888 25.4275 24.5413 25.2931L30.2102 24.9698C31.1507 24.9162 32.0303 24.5685 32.7536 23.9649C33.477 23.3611 33.976 22.5578 34.1972 21.6417C34.4176 20.7255 34.3391 19.7829 33.9701 18.9157C33.6011 18.0485 32.9759 17.3385 32.1625 16.8623L32.1079 16.8306C30.0766 15.6212 28.6279 13.607 28.1284 11.2946C27.9995 10.6981 27.7528 10.146 27.4024 9.66234C27.2119 9.3994 26.9904 9.15652 26.7408 8.93771C26.0319 8.31684 25.1607 7.94857 24.2211 7.87261C23.282 7.79687 22.363 8.02078 21.5636 8.52008C20.7642 9.01939 20.16 9.74687 19.8158 10.6241L17.7428 15.9101Z" fill="#FFC107"/>
<path d="M25.8516 27.1093C25.0332 26.5765 24.032 26.4467 23.0324 26.7439C22.0811 27.0266 21.241 27.6685 20.6669 28.5518C20.0934 29.4349 19.848 30.4631 19.9756 31.4474C20.1098 32.4812 20.6346 33.3436 21.4526 33.8747C23.097 34.9444 25.4222 34.2972 26.6367 32.4313C27.602 30.9443 27.5748 29.1271 26.6924 27.9093C26.4671 27.5983 26.186 27.3265 25.8516 27.1093Z" fill="#FFC107"/>
<path d="M19.3286 24.4918C17.9857 22.6382 15.175 22.375 13.0633 23.9051C10.951 25.4356 10.3252 28.1886 11.6682 30.0421C13.011 31.8955 15.8219 32.1583 17.9342 30.6278C20.0459 29.0977 20.6715 26.3451 19.3286 24.4918Z" fill="#FFC107"/>
<path d="M16.0636 18.0046L16.0635 18.0044C15.9516 17.6508 15.786 17.3271 15.5761 17.0375C14.5967 15.6857 12.6584 15.0812 10.7822 15.6741C9.70208 16.0153 8.79557 16.7011 8.22983 17.6052C7.63744 18.5515 7.48443 19.6206 7.79898 20.6158C8.11366 21.6113 8.85348 22.3983 9.88204 22.8323C10.8646 23.2469 12.0005 23.2871 13.0804 22.9456C15.3586 22.2255 16.6969 20.0089 16.0636 18.0046Z" fill="#FFC107"/>
<path d="M10.4877 11.2497L10.4875 11.2506C10.4694 13.2129 12.2638 14.8281 14.4882 14.851C16.7125 14.8723 18.5384 13.2939 18.5586 11.333C18.5662 10.6177 18.3325 9.94826 17.9247 9.38536C17.2138 8.4043 15.9735 7.74642 14.5583 7.73128C12.3341 7.71013 10.5081 9.2883 10.4877 11.2497Z" fill="#FFC107"/>
</g>
<defs>
<clipPath id="clip0_31154_5388">
<rect width="28.2604" height="28.2604" fill="white" transform="translate(16.7031 40.001) rotate(-125.925)"/>
</clipPath>
</defs>
</svg>
