<svg width="113" height="112" viewBox="0 0 113 112" fill="none" xmlns="http://www.w3.org/2000/svg">
<g opacity="0.12" clip-path="url(#clip0_31154_5406)">
<path d="M46.4832 65.204C53.0619 65.7832 59.4003 63.0098 63.4378 57.7844C67.4753 52.559 68.5596 45.7259 66.3387 39.5067L60.9881 24.5195C60.1006 22.0331 58.4703 19.9426 56.2755 18.4751C54.0802 17.0072 51.5259 16.3004 48.8876 16.4298C46.2499 16.5613 43.7775 17.5177 41.7375 19.1953C39.6974 20.8729 38.2825 23.1152 37.645 25.6788L37.6029 25.8509C35.9567 32.2688 31.6861 37.7563 25.8631 40.9271C24.3612 41.7452 23.0715 42.845 22.0481 44.1695C21.4917 44.8896 21.0137 45.6772 20.6227 46.5213C19.5137 48.9183 19.2121 51.552 19.7506 54.1383C20.2893 56.7233 21.6178 59.0175 23.5923 60.7722C25.5667 62.5269 28.0004 63.5765 30.6313 63.8086L46.4832 65.204Z" fill="#FFC107"/>
<path d="M70.1892 34.5519C69.4036 37.1737 69.846 39.9683 71.4353 42.4212C72.9473 44.7556 75.3375 46.5069 78.1663 47.3525C80.9941 48.1965 83.953 48.0436 86.4986 46.9224C89.1722 45.7442 91.0763 43.6515 91.8578 41.032C93.4341 35.7651 89.856 30.0245 83.8788 28.2339C79.1174 26.8138 74.2527 28.3233 71.6757 31.6585C71.0177 32.5102 70.5089 33.4809 70.1892 34.5519Z" fill="#FFC107"/>
<path d="M68.3081 54.156C64.3859 59.2322 65.9 66.9977 71.6834 71.4664C77.4683 75.9363 85.3655 75.4426 89.2878 70.3664C93.2097 65.2906 91.6943 57.5248 85.9094 53.055C80.1259 48.5863 72.23 49.0802 68.3081 54.156Z" fill="#FFC107"/>
<path d="M53.4454 68.0633L53.445 68.0638C52.5825 68.6444 51.8431 69.3453 51.2302 70.1386C48.3698 73.8406 48.2766 79.5303 51.3539 84.1066C53.125 86.7411 55.6857 88.6365 58.5638 89.443C61.5765 90.2878 64.5722 89.8541 66.9997 88.2216C69.4275 86.5886 70.9588 83.9772 71.3128 80.8685C71.6509 77.8988 70.861 74.8127 69.0891 72.1791C65.352 66.6226 58.3342 64.7763 53.4454 68.0633Z" fill="#FFC107"/>
<path d="M39.6902 88.3962L39.6928 88.3959C44.9836 86.8933 47.908 80.7918 46.2112 74.7927C44.5103 68.795 38.8229 65.1329 33.5343 66.6287C31.6049 67.1738 29.9897 68.3313 28.7985 69.8729C26.7225 72.5597 25.934 76.4148 27.012 80.232C28.7133 86.2292 34.4002 89.8918 39.6902 88.3962Z" fill="#FFC107"/>
</g>
<defs>
<clipPath id="clip0_31154_5406">
<rect width="79.2039" height="79.2039" fill="white" transform="translate(112.084 48.958) rotate(127.692)"/>
</clipPath>
</defs>
</svg>
