<svg width="112" height="112" viewBox="0 0 112 112" fill="none" xmlns="http://www.w3.org/2000/svg">
<g opacity="0.12" clip-path="url(#clip0_31154_5412)">
<path d="M62.2596 67.8904C64.6317 61.7269 63.715 54.8694 59.8066 49.5467C55.8982 44.224 49.6296 41.2963 43.039 41.7148L27.1573 42.7221C24.5225 42.889 22.0633 43.8791 20.0471 45.5837C18.0304 47.2887 16.6463 49.5488 16.0426 52.1205C15.4412 54.692 15.6781 57.3323 16.7277 59.7561C17.7772 62.1798 19.5421 64.1586 21.8302 65.4787L21.984 65.5667C27.6984 68.92 31.7944 74.539 33.2353 81.0109C33.6072 82.6802 34.3084 84.2232 35.2991 85.5724C35.8377 86.3059 36.4629 86.9827 37.1663 87.5915C39.1641 89.3189 41.6124 90.3355 44.2469 90.5316C46.8802 90.7271 49.4519 90.0832 51.6833 88.6696C53.9147 87.256 55.5951 85.2064 56.5442 82.7418L62.2596 67.8904Z" fill="#54ADFF"/>
<path d="M39.3402 36.6469C41.6433 38.1254 44.4516 38.4714 47.2477 37.6206C49.9087 36.8115 52.2516 34.9974 53.845 32.5117C55.4365 30.0266 56.1061 27.1404 55.7308 24.3842C55.3361 21.4893 53.8501 19.0817 51.548 17.6077C46.9205 14.6392 40.4155 16.4943 37.045 21.7453C34.3661 25.93 34.4747 31.0224 36.9693 34.4197C37.6063 35.2872 38.399 36.0441 39.3402 36.6469Z" fill="#54ADFF"/>
<path d="M57.6615 43.8654C61.4583 49.0361 69.3401 49.7237 75.2312 45.3979C81.1238 41.071 82.8285 33.3442 79.0316 28.1734C75.2352 23.0032 67.3527 22.3169 61.4602 26.6437C55.5691 30.9695 53.865 38.6952 57.6615 43.8654Z" fill="#54ADFF"/>
<path d="M66.9296 61.9878L66.93 61.9883C67.25 62.9775 67.7197 63.8816 68.3131 64.6897C71.082 68.4606 76.5251 70.1201 81.7728 68.4251C84.7939 67.4498 87.3222 65.5115 88.8916 62.9677C90.535 60.3051 90.9448 57.3061 90.0455 54.5223C89.1458 51.7381 87.0584 49.5457 84.168 48.3477C81.4069 47.2032 78.2227 47.1109 75.2024 48.0872C68.8303 50.1459 65.1192 56.3818 66.9296 61.9878Z" fill="#54ADFF"/>
<path d="M82.6763 80.8202L82.6767 80.8177C82.6924 75.3176 77.6348 70.8231 71.4004 70.7986C65.1662 70.7785 60.0769 75.2344 60.0553 80.7305C60.0468 82.7354 60.7137 84.6073 61.8667 86.1776C63.8764 88.9145 67.3641 90.7361 71.3306 90.7533C77.5645 90.773 82.6541 86.3175 82.6763 80.8202Z" fill="#54ADFF"/>
</g>
<defs>
<clipPath id="clip0_31154_5412">
<rect width="79.2039" height="79.2039" fill="white" transform="translate(64.7461 0.353516) rotate(53.7104)"/>
</clipPath>
</defs>
</svg>
