<svg width="39" height="39" viewBox="0 0 39 39" fill="none" xmlns="http://www.w3.org/2000/svg">
<g opacity="0.12" clip-path="url(#clip0_31154_5394)">
<path d="M22.2923 15.6682C19.9575 15.9863 17.9711 17.4519 16.9789 19.589C15.9868 21.7261 16.1492 24.1893 17.4132 26.1779L20.4587 30.9702C20.9639 31.7652 21.6963 32.3639 22.5759 32.7011C23.4557 33.0385 24.4003 33.0827 25.3081 32.8292C26.2155 32.5752 27.0003 32.0471 27.5776 31.3022C28.1549 30.5574 28.4701 29.6654 28.4895 28.7231L28.4905 28.6598C28.5564 26.2967 29.609 24.05 31.3847 22.4867C31.8426 22.0835 32.2045 21.5989 32.456 21.0572C32.5927 20.7627 32.6968 20.4509 32.7662 20.1263C32.9628 19.2047 32.8597 18.2644 32.468 17.407C32.0764 16.5501 31.4329 15.8568 30.6073 15.4022C29.7817 14.9476 28.852 14.7746 27.9182 14.9016L22.2923 15.6682Z" fill="#54ADFF"/>
<path d="M16.4647 28.2052C16.531 27.2309 16.1563 26.2934 15.4096 25.5655C14.6991 24.8726 13.7291 24.452 12.678 24.3813C11.6274 24.3109 10.6099 24.5978 9.81273 25.189C8.9755 25.8102 8.47825 26.6887 8.41321 27.6619C8.28074 29.619 9.97917 31.3339 12.2004 31.4848C13.9693 31.6029 15.5428 30.6934 16.176 29.3294C16.3377 28.9811 16.4381 28.6031 16.4647 28.2052Z" fill="#54ADFF"/>
<path d="M15.5723 21.2362C16.5361 19.1601 15.3959 16.5776 13.0305 15.4795C10.6646 14.3812 7.95575 15.1767 6.99193 17.2528C6.0282 19.3287 7.16887 21.9111 9.53479 23.0095C11.9001 24.1076 14.6085 23.3121 15.5723 21.2362Z" fill="#54ADFF"/>
<path d="M19.6446 15.2222L19.6447 15.222C19.8989 14.9519 20.1008 14.6496 20.2515 14.3252C20.9543 12.8111 20.5374 10.824 19.1052 9.47474C18.2808 8.69791 17.2401 8.24067 16.1749 8.18737C15.0599 8.13136 14.0518 8.51888 13.3361 9.27867C12.6203 10.0386 12.2938 11.0682 12.4162 12.1779C12.5331 13.2379 13.0517 14.2493 13.8762 15.0258C15.6154 16.664 18.2031 16.7521 19.6446 15.2222Z" fill="#54ADFF"/>
<path d="M22.8249 7.06179L22.824 7.06211C21.1018 8.00283 20.5661 10.3569 21.6304 12.3102C22.696 14.2628 24.9641 15.0879 26.6862 14.1496C27.3145 13.8076 27.7851 13.2773 28.0778 12.6468C28.5879 11.5479 28.5578 10.1443 27.8812 8.90117C26.8155 6.94879 24.5474 6.12356 22.8249 7.06179Z" fill="#54ADFF"/>
</g>
<defs>
<clipPath id="clip0_31154_5394">
<rect width="28.2604" height="28.2604" fill="white" transform="translate(0.75 26.502) rotate(-65.0971)"/>
</clipPath>
</defs>
</svg>
