<svg width="42" height="42" viewBox="0 0 42 42" fill="none" xmlns="http://www.w3.org/2000/svg">
<g opacity="0.12" clip-path="url(#clip0_31154_5382)">
<path d="M18.5899 16.3891C17.6877 18.6895 18.0144 21.2575 19.4641 23.2584C20.9138 25.2592 23.2522 26.3695 25.7192 26.2286L31.6639 25.8895C32.6501 25.8333 33.5726 25.4688 34.331 24.8357C35.0896 24.2026 35.6129 23.3603 35.8449 22.3995C36.076 21.4388 35.9936 20.4503 35.6067 19.5409C35.2198 18.6316 34.5642 17.887 33.7112 17.3876L33.6539 17.3543C31.5237 16.0861 30.0045 13.9739 29.4808 11.549C29.3456 10.9235 29.0869 10.3445 28.7195 9.83734C28.5197 9.5616 28.2874 9.3069 28.0257 9.07745C27.2823 8.42637 26.3686 8.04018 25.3834 7.96053C24.3986 7.88111 23.4348 8.11591 22.5966 8.63951C21.7583 9.16311 21.1247 9.92598 20.7637 10.8459L18.5899 16.3891Z" fill="#FFC107"/>
<path d="M27.0921 28.1326C26.2338 27.5739 25.1839 27.4378 24.1357 27.7495C23.1381 28.0459 22.2572 28.7191 21.6551 29.6453C21.0537 30.5714 20.7963 31.6497 20.9302 32.6818C21.071 33.7659 21.6212 34.6703 22.4791 35.2272C24.2034 36.3489 26.6418 35.6703 27.9154 33.7136C28.9276 32.1543 28.8991 30.2486 27.9738 28.9716C27.7376 28.6455 27.4428 28.3604 27.0921 28.1326Z" fill="#FFC107"/>
<path d="M20.2547 25.3883C18.8464 23.4445 15.899 23.1686 13.6845 24.7731C11.4695 26.378 10.8132 29.265 12.2216 31.2087C13.6297 33.1522 16.5774 33.4278 18.7924 31.8228C21.0069 30.2183 21.6629 27.3318 20.2547 25.3883Z" fill="#FFC107"/>
<path d="M16.8291 18.5853L16.8289 18.5851C16.7115 18.2142 16.5379 17.8748 16.3179 17.571C15.2908 16.1535 13.2582 15.5196 11.2907 16.1414C10.158 16.4991 9.20738 17.2183 8.61412 18.1664C7.9929 19.1587 7.83245 20.2798 8.16231 21.3235C8.4923 22.3674 9.26811 23.1927 10.3467 23.6478C11.3771 24.0826 12.5683 24.1247 13.7007 23.7666C16.0897 23.0115 17.4931 20.6871 16.8291 18.5853Z" fill="#FFC107"/>
<path d="M10.9838 11.5018L10.9836 11.5027C10.9647 13.5605 12.8463 15.2543 15.1789 15.2783C17.5115 15.3006 19.4263 13.6455 19.4474 11.5891C19.4554 10.839 19.2103 10.137 18.7826 9.54674C18.0372 8.51794 16.7366 7.82805 15.2525 7.81218C12.9201 7.79 11.0052 9.44495 10.9838 11.5018Z" fill="#FFC107"/>
</g>
<defs>
<clipPath id="clip0_31154_5382">
<rect width="29.6354" height="29.6354" fill="white" transform="translate(17.5 41.6514) rotate(-125.925)"/>
</clipPath>
</defs>
</svg>
