<svg xmlns="http://www.w3.org/2000/svg" aria-hidden="true" style="position:absolute;width:0;height:0;overflow:hidden;fill:none"><defs><symbol id="arrow-left"><path stroke="#54ADFF" stroke-linecap="round" stroke-linejoin="round" stroke-width="1.5" d="M4 12h16M4 12l6-6m-6 6 6 6"/></symbol><symbol id="camera"><path stroke="#54ADFF" stroke-linejoin="round" stroke-width="1.5" d="M12 16a3 3 0 1 0 0-6 3 3 0 0 0 0 6Z"/><path stroke="#54ADFF" stroke-linejoin="round" stroke-width="1.5" d="M3 9a2 2 0 0 1 2-2h2.5a1 1 0 0 0 1-1 1 1 0 0 1 1-1h5a1 1 0 0 1 1 1 1 1 0 0 0 1 1H19a2 2 0 0 1 2 2v8a2 2 0 0 1-2 2H5a2 2 0 0 1-2-2V9Z"/></symbol><symbol id="check-round"><path stroke="#54ADFF" stroke-linecap="round" stroke-linejoin="round" stroke-width="1.5" d="m17 9-7 7-3-3m1 7h8a4 4 0 0 0 4-4V8a4 4 0 0 0-4-4H8a4 4 0 0 0-4 4v8a4 4 0 0 0 4 4Z"/></symbol><symbol id="check"><path stroke="#54ADFF" stroke-linecap="round" stroke-linejoin="round" stroke-width="1.5" d="M20 7 9 18l-5-5"/></symbol><symbol id="arrow-down"><path stroke="#54ADFF" stroke-linecap="round" stroke-linejoin="round" stroke-width="1.5" d="m4 9 8 8 8-8"/></symbol><symbol id="arrow-up"><path stroke="#54ADFF" stroke-linecap="round" stroke-linejoin="round" stroke-width="1.5" d="m20 15-8-8-8 8"/></symbol><symbol id="clock"><path stroke="#54ADFF" stroke-linecap="round" stroke-linejoin="round" stroke-width="1.5" d="M12.758 7v5l3 3m6-3a9 9 0 1 1-18 0 9 9 0 0 1 18 0Z"/></symbol><symbol id="cross-small"><path stroke="#54ADFF" stroke-linecap="round" stroke-linejoin="round" stroke-width="1.5" d="m16 8-8 8m0-8 8 8"/></symbol><symbol id="cross"><path stroke="#54ADFF" stroke-linecap="round" stroke-linejoin="round" stroke-width="1.5" d="M19 5 5 19M5 5l14 14"/></symbol><symbol id="edit"><path fill="#54ADFF" d="m5 15.706-.53-.53a.75.75 0 0 0-.22.53H5ZM15.706 5l.53-.53a.75.75 0 0 0-1.06 0l.53.53ZM19 8.294l.53.53a.75.75 0 0 0 0-1.06l-.53.53ZM8.294 19v.75a.75.75 0 0 0 .53-.22l-.53-.53ZM5 19h-.75c0 .414.336.75.75.75V19Zm6.588-.75a.75.75 0 0 0 0 1.5v-1.5Zm7 1.5a.75.75 0 0 0 0-1.5v1.5ZM5.53 16.236 16.236 5.53l-1.06-1.06L4.47 15.176l1.06 1.06ZM15.176 5.53l3.294 3.294 1.06-1.06-3.294-3.294-1.06 1.06Zm3.294 2.234L7.764 18.47l1.06 1.06L19.53 8.824l-1.06-1.06ZM8.294 18.25H5v1.5h3.294v-1.5ZM5.75 19v-3.294h-1.5V19h1.5Zm6.955-11 3.294 3.295 1.06-1.06-3.293-3.295L12.705 8Zm-1.117 11.75h7v-1.5h-7v1.5Z"/></symbol><symbol id="eye-closed"><path stroke="#54ADFF" stroke-linecap="round" stroke-linejoin="round" stroke-width="1.5" d="M9.764 5.295A8.618 8.618 0 0 1 12 5c6.364 0 10 7 10 7s-.829 1.596-2.388 3.264M4.349 8.777C2.815 10.431 2 12 2 12s3.636 7 10 7a8.62 8.62 0 0 0 2.274-.306M11.5 14.96A3.004 3.004 0 0 1 9.17 13m3.33-3.959a3.002 3.002 0 0 1 2.459 2.459M3 3l18 18"/></symbol><symbol id="eye-open"><path stroke="#54ADFF" stroke-linecap="round" stroke-linejoin="round" stroke-width="1.5" d="M2 12s3.636-7 10-7 10 7 10 7-3.636 7-10 7-10-7-10-7Z"/><path stroke="#54ADFF" stroke-linecap="round" stroke-linejoin="round" stroke-width="1.5" d="M12 15a3 3 0 1 0 0-6 3 3 0 0 0 0 6Z"/></symbol><symbol id="female"><path stroke="#54ADFF" stroke-linecap="round" stroke-linejoin="round" stroke-width="1.5" d="M12.758 13a5 5 0 1 0 0-10 5 5 0 0 0 0 10Zm0 0v8m-3-3h6"/></symbol><symbol id="filters"><path stroke="#54ADFF" stroke-linecap="round" stroke-width="1.5" d="M14 5a2 2 0 1 0-4 0m4 0a2 2 0 1 1-4 0m4 0h6M10 5H4m12 7a2 2 0 1 0 4 0 2 2 0 0 0-4 0Zm0 0H4m4 7a2 2 0 1 0-4 0 2 2 0 0 0 4 0Zm0 0h12"/></symbol><symbol id="filters-1"><path stroke="#54ADFF" stroke-linecap="round" stroke-linejoin="round" stroke-width="1.5" d="m4.758 4 5 8v6l6 3v-9l5-8h-16Z"/></symbol><symbol id="heart"><path stroke="#54ADFF" stroke-linecap="round" stroke-linejoin="round" stroke-width="1.5" d="M4.331 12.047 12 20l7.669-7.953A4.804 4.804 0 0 0 21 8.714C21 6.111 18.965 4 16.454 4a4.465 4.465 0 0 0-3.214 1.38L12 6.668 10.76 5.38A4.465 4.465 0 0 0 7.546 4C5.036 4 3 6.11 3 8.714c0 1.25.479 2.45 1.331 3.333Z"/></symbol><symbol id="location"><path stroke="#54ADFF" stroke-linecap="round" stroke-linejoin="round" stroke-width="1.5" d="M20.758 11c0 4.418-3.582 8-8 10-4.418-2-8-5.582-8-10a8 8 0 1 1 16 0Z"/><path stroke="#54ADFF" stroke-linecap="round" stroke-linejoin="round" stroke-width="1.5" d="M15.758 11a3 3 0 1 1-6 0 3 3 0 0 1 6 0Z"/></symbol><symbol id="logout"><path stroke="#54ADFF" stroke-linecap="round" stroke-linejoin="round" stroke-width="1.5" d="M14 4h4a2 2 0 0 1 2 2v12a2 2 0 0 1-2 2h-4M3 12h12M3 12l4-4m-4 4 4 4"/></symbol><symbol id="male"><path stroke="#54ADFF" stroke-linecap="round" stroke-linejoin="round" stroke-width="1.5" d="M12.758 11a5 5 0 1 0 0 10 5 5 0 0 0 0-10Zm0 0V3m0 0 4 4m-4-4-4 4"/></symbol><symbol id="menu-hamburger"><path stroke="#54ADFF" stroke-linecap="round" stroke-linejoin="round" stroke-width="1.5" d="M4 7h16M4 12h16M4 17h16"/></symbol><symbol id="pawprint"><g fill="#54ADFF" clip-path="url(#clip0_31009_547)"><path d="M15.361 14.362a5.82 5.82 0 0 0-3.322-4.518 5.82 5.82 0 0 0-5.596.36l-4.074 2.579a3.675 3.675 0 0 0-1.473 1.795 3.674 3.674 0 0 0-.113 2.32 3.675 3.675 0 0 0 1.294 1.93c.631.491 1.388.76 2.189.778l.052.001a7.271 7.271 0 0 1 5.24 2.467 3.68 3.68 0 0 0 2.002 1.177 3.675 3.675 0 0 0 2.31-.25 3.675 3.675 0 0 0 1.705-1.577c.388-.7.536-1.49.43-2.283l-.644-4.779Zm-2.074 7.359c-.927.421-2 .19-2.672-.575a8.662 8.662 0 0 0-2.85-2.136 8.662 8.662 0 0 0-3.467-.81l-.035-.001a2.28 2.28 0 0 1-2.124-1.677 2.28 2.28 0 0 1 .982-2.55l4.075-2.58a4.418 4.418 0 0 1 4.249-.273 4.419 4.419 0 0 1 2.522 3.43l.643 4.78a2.28 2.28 0 0 1-1.323 2.392ZM4.721 9.395c.828.058 1.624-.259 2.244-.892.59-.602.948-1.426 1.01-2.318.06-.892-.182-1.757-.682-2.435-.527-.711-1.272-1.135-2.099-1.192-1.662-.115-3.12 1.325-3.252 3.211-.103 1.502.668 2.84 1.825 3.38.296.137.617.223.954.246Zm-1.375-3.53c.077-1.11.863-1.965 1.752-1.903.16.01.316.052.463.12.227.106.432.277.6.505.303.409.448.942.41 1.501-.039.56-.256 1.067-.612 1.431-.326.333-.731.501-1.14.473-.889-.061-1.55-1.015-1.473-2.126ZM10.641 8.647c1.762.821 3.957-.143 4.893-2.15.936-2.008.264-4.31-1.498-5.131-1.761-.822-3.956.143-4.892 2.15-.936 2.008-.264 4.31 1.497 5.13Zm2.801-6.006c1.059.493 1.425 1.956.817 3.261-.608 1.304-1.965 1.963-3.023 1.47-1.059-.494-1.425-1.957-.817-3.26.608-1.305 1.964-1.965 3.023-1.471ZM15.744 12.114c.229.216.485.388.76.517 1.285.599 2.974.248 4.122-.967.66-.699 1.05-1.582 1.097-2.486.05-.947-.278-1.804-.923-2.413-.644-.608-1.518-.888-2.46-.785-.901.098-1.76.536-2.421 1.236-1.394 1.474-1.472 3.672-.175 4.898Zm1.197-3.932c.432-.457.982-.742 1.55-.804.526-.057 1.003.089 1.343.41.34.32.512.789.484 1.317-.03.57-.283 1.136-.715 1.593-.86.91-2.159 1.088-2.893.394-.733-.694-.63-2 .231-2.91ZM22.67 14.827c-.797-1.465-2.795-1.923-4.456-1.022-1.66.902-2.363 2.827-1.569 4.29.29.535.74.935 1.274 1.185.933.435 2.125.411 3.181-.162 1.66-.902 2.364-2.827 1.57-4.291Zm-2.24 3.055c-.98.531-2.124.326-2.548-.457-.425-.783.026-1.852 1.004-2.384.65-.353 1.372-.38 1.909-.13.271.126.496.324.639.587.424.783-.027 1.852-1.005 2.384Z"/></g><clipPath id="clip0_31009_547"><path fill="#fff" d="M0 0h24v24H0z"/></clipPath></symbol><symbol id="plus-small"><path stroke="#54ADFF" stroke-linecap="round" stroke-linejoin="round" stroke-width="1.5" d="M12 7v10m-5-5h10"/></symbol><symbol id="plus"><path stroke-linecap="round" stroke-width="2" d="M12 20v-8m0 0V4m0 8h8m-8 0H4"/></symbol><symbol id="round"><path stroke="#54ADFF" stroke-linejoin="round" stroke-width="1.5" d="M4 8a4 4 0 0 1 4-4h8a4 4 0 0 1 4 4v8a4 4 0 0 1-4 4H8a4 4 0 0 1-4-4V8Z"/></symbol><symbol id="search"><path fill="#54ADFF" d="M19.47 20.53a.75.75 0 1 0 1.06-1.06l-1.06 1.06ZM17.25 10.5a6.75 6.75 0 0 1-6.75 6.75v1.5a8.25 8.25 0 0 0 8.25-8.25h-1.5Zm-6.75 6.75a6.75 6.75 0 0 1-6.75-6.75h-1.5a8.25 8.25 0 0 0 8.25 8.25v-1.5ZM3.75 10.5a6.75 6.75 0 0 1 6.75-6.75v-1.5a8.25 8.25 0 0 0-8.25 8.25h1.5Zm6.75-6.75a6.75 6.75 0 0 1 6.75 6.75h1.5a8.25 8.25 0 0 0-8.25-8.25v1.5Zm10.03 15.72-4.187-4.188-1.06 1.06 4.187 4.188 1.06-1.06Z"/></symbol><symbol id="trash"><path stroke="#54ADFF" stroke-linecap="round" stroke-linejoin="round" stroke-width="1.5" d="M18 6v12a2 2 0 0 1-2 2H8a2 2 0 0 1-2-2V6m9 0V5a2 2 0 0 0-2-2h-2a2 2 0 0 0-2 2v1M4 6h16m-10 4v6m4-6v6"/></symbol><symbol id="user"><path stroke="#FFC107" stroke-linecap="round" stroke-linejoin="round" stroke-width="1.5" d="M22 24v-2a4 4 0 0 0-4-4h-8a4 4 0 0 0-4 4v2m12-14a4 4 0 1 1-8 0 4 4 0 0 1 8 0Z"/><rect width="26.5" height="26.5" x=".75" y=".75" stroke="#FFC107" stroke-width="1.5" rx="13.25"/></symbol></defs></svg>